# xmcd
#
# Track frame offsets: 
#        150
#        11761
#        22426
#        33775
#        44085
#        55923
#        68366
#        79832
#        91655
#        103246
#        114262
#        126722
#        136916
#        147709
#        157560
#        167759
#        176795
#        187139
#        200181
#        211257
#        224384
#        235989
#        248601
#        258983
#        270255
#
# Disc length: 3764 seconds
#
# Revision: 2
# Processed by: cddbd v1.5.2PL0 Copyright (c) Steve Scherf et al.
# Submitted via: ExactAudioCopyFreeDBPlugin 1.0
#
DISCID=700eb219
DTITLE=Various Artist - Northern Soul:  The Early Years [Real Gone Mu
DTITLE=sic]
DYEAR=2014
DGENRE=Soul
TTITLE0=Roy Hamilton - Earthquake
TTITLE1=Jimmy Ruffin - Don't Feel Sorry for Me
TTITLE2=The Extremes - The Bells
TTITLE3=The Revlons - I Promise Love
TTITLE4=The Miracles - That's the Way I Feel
TTITLE5=Wilson Pickett - Let Me Be Your Boy
TTITLE6=Marv Johnson - All the Love I've Got
TTITLE7=The Caravelles - Pink Lips
TTITLE8=Robert Knight - Free Me
TTITLE9=The Chantels - Well, I Told You
TTITLE10=Gino Parks - Fire
TTITLE11=Chuck Jackson - I Don't Want to Cry
TTITLE12=Dee Dee Sharp - Baby Cakes
TTITLE13=Rita Faye - Salt and Pepper
TTITLE14=Lou Johnson - If I Never Get to Love You
TTITLE15=Patience Valentine - If You Don't Come
TTITLE16=Jerry Butler - I'm a Telling You
TTITLE17=Sidney Barnes - Wait
TTITLE18=Joe Simon - I See You Face
TTITLE19=Marvin Gaye - Stubborn Kind of Fellow
TTITLE20=Dobie Gray - Look at Me
TTITLE21=Jimmy Radcliffe - (There Goes) The Forgotten Man
TTITLE22=Carl Lester and The Showstoppers - When You See Me Hurt
TTITLE23=The "5" Royales - Catch That Teardrop
TTITLE24=The Van-Dellos - I Need You
EXTD=
EXTT0=
EXTT1=
EXTT2=
EXTT3=
EXTT4=
EXTT5=
EXTT6=
EXTT7=
EXTT8=
EXTT9=
EXTT10=
EXTT11=
EXTT12=
EXTT13=
EXTT14=
EXTT15=
EXTT16=
EXTT17=
EXTT18=
EXTT19=
EXTT20=
EXTT21=
EXTT22=
EXTT23=
EXTT24=
PLAYORDER=
